<mxfile host="app.diagrams.net" modified="2022-03-25T07:17:43.523Z" agent="5.0 (Windows NT 10.0; Win64; x64) AppleWebKit/537.36 (KHTML, like Gecko) Chrome/99.0.4844.74 Safari/537.36" etag="LaZhJ3yN7nYKos3qtOi5" version="17.1.5" type="github">
  <diagram id="22KFjAZIgZ1wEyFO1Qyh" name="Page-1">
    <mxGraphModel dx="1038" dy="571" grid="1" gridSize="10" guides="1" tooltips="1" connect="1" arrows="1" fold="1" page="1" pageScale="1" pageWidth="827" pageHeight="1169" math="0" shadow="0">
      <root>
        <mxCell id="0" />
        <mxCell id="1" parent="0" />
        <mxCell id="picqBfe8_j36jY5c43g5-27" value="" style="rounded=0;whiteSpace=wrap;html=1;" parent="1" vertex="1">
          <mxGeometry x="117" y="90" width="733" height="490" as="geometry" />
        </mxCell>
        <mxCell id="picqBfe8_j36jY5c43g5-1" value="抽帧" style="html=1;shape=mxgraph.sysml.isControl;whiteSpace=wrap;align=center;" parent="1" vertex="1">
          <mxGeometry x="140" y="270" width="120" height="60" as="geometry" />
        </mxCell>
        <mxCell id="picqBfe8_j36jY5c43g5-2" value="video" style="edgeStyle=elbowEdgeStyle;html=1;elbow=horizontal;startArrow=open;rounded=0;endArrow=none;verticalAlign=bottom;exitX=0;exitY=0.5;startSize=12;" parent="1" source="picqBfe8_j36jY5c43g5-1" edge="1">
          <mxGeometry relative="1" as="geometry">
            <mxPoint x="50" y="300" as="targetPoint" />
          </mxGeometry>
        </mxCell>
        <mxCell id="picqBfe8_j36jY5c43g5-3" value="{picture}" style="edgeStyle=elbowEdgeStyle;html=1;elbow=vertical;endArrow=open;rounded=0;verticalAlign=bottom;entryX=0;entryY=0.5;endSize=12;" parent="1" source="picqBfe8_j36jY5c43g5-1" edge="1">
          <mxGeometry relative="1" as="geometry">
            <mxPoint x="350" y="300" as="targetPoint" />
          </mxGeometry>
        </mxCell>
        <mxCell id="picqBfe8_j36jY5c43g5-40" style="edgeStyle=orthogonalEdgeStyle;rounded=0;orthogonalLoop=1;jettySize=auto;html=1;entryX=0.5;entryY=1;entryDx=0;entryDy=0;" parent="1" source="picqBfe8_j36jY5c43g5-5" target="picqBfe8_j36jY5c43g5-35" edge="1">
          <mxGeometry relative="1" as="geometry" />
        </mxCell>
        <mxCell id="picqBfe8_j36jY5c43g5-5" value="人脸识别" style="html=1;shape=mxgraph.sysml.isControl;whiteSpace=wrap;align=center;" parent="1" vertex="1">
          <mxGeometry x="350" y="270" width="120" height="60" as="geometry" />
        </mxCell>
        <mxCell id="picqBfe8_j36jY5c43g5-6" value="{picture}" style="edgeStyle=elbowEdgeStyle;html=1;elbow=vertical;endArrow=open;rounded=0;verticalAlign=bottom;entryX=0;entryY=0.5;endSize=12;" parent="1" edge="1">
          <mxGeometry x="0.0879" y="10" relative="1" as="geometry">
            <mxPoint x="561" y="299.5" as="targetPoint" />
            <mxPoint x="471" y="299.5" as="sourcePoint" />
            <Array as="points">
              <mxPoint x="471" y="300" />
            </Array>
            <mxPoint x="1" as="offset" />
          </mxGeometry>
        </mxCell>
        <mxCell id="picqBfe8_j36jY5c43g5-13" style="edgeStyle=orthogonalEdgeStyle;rounded=0;orthogonalLoop=1;jettySize=auto;html=1;" parent="1" source="picqBfe8_j36jY5c43g5-7" target="picqBfe8_j36jY5c43g5-10" edge="1">
          <mxGeometry relative="1" as="geometry">
            <Array as="points">
              <mxPoint x="620" y="400" />
            </Array>
          </mxGeometry>
        </mxCell>
        <mxCell id="picqBfe8_j36jY5c43g5-7" value="人脸比对" style="html=1;shape=mxgraph.sysml.isControl;whiteSpace=wrap;align=center;" parent="1" vertex="1">
          <mxGeometry x="560" y="270" width="120" height="60" as="geometry" />
        </mxCell>
        <mxCell id="picqBfe8_j36jY5c43g5-8" value="抓拍" style="html=1;shape=mxgraph.sysml.isControl;whiteSpace=wrap;align=center;" parent="1" vertex="1">
          <mxGeometry x="414" y="390" width="120" height="60" as="geometry" />
        </mxCell>
        <mxCell id="picqBfe8_j36jY5c43g5-10" value="签到" style="html=1;shape=mxgraph.sysml.isControl;whiteSpace=wrap;align=center;" parent="1" vertex="1">
          <mxGeometry x="560" y="390" width="120" height="60" as="geometry" />
        </mxCell>
        <mxCell id="picqBfe8_j36jY5c43g5-11" value="..." style="html=1;shape=mxgraph.sysml.isControl;whiteSpace=wrap;align=center;" parent="1" vertex="1">
          <mxGeometry x="710" y="390" width="120" height="60" as="geometry" />
        </mxCell>
        <mxCell id="picqBfe8_j36jY5c43g5-14" value="" style="endArrow=classic;html=1;rounded=0;" parent="1" target="picqBfe8_j36jY5c43g5-8" edge="1">
          <mxGeometry width="50" height="50" relative="1" as="geometry">
            <mxPoint x="620" y="330" as="sourcePoint" />
            <mxPoint x="440" y="270" as="targetPoint" />
          </mxGeometry>
        </mxCell>
        <mxCell id="picqBfe8_j36jY5c43g5-15" value="" style="endArrow=classic;html=1;rounded=0;exitX=0.51;exitY=1.03;exitDx=0;exitDy=0;exitPerimeter=0;" parent="1" source="picqBfe8_j36jY5c43g5-7" target="picqBfe8_j36jY5c43g5-11" edge="1">
          <mxGeometry width="50" height="50" relative="1" as="geometry">
            <mxPoint x="630" y="340" as="sourcePoint" />
            <mxPoint x="532.6666666666667" y="400" as="targetPoint" />
          </mxGeometry>
        </mxCell>
        <mxCell id="picqBfe8_j36jY5c43g5-46" style="edgeStyle=orthogonalEdgeStyle;rounded=0;orthogonalLoop=1;jettySize=auto;html=1;entryX=1;entryY=0.5;entryDx=0;entryDy=0;" parent="1" source="picqBfe8_j36jY5c43g5-18" target="picqBfe8_j36jY5c43g5-22" edge="1">
          <mxGeometry relative="1" as="geometry" />
        </mxCell>
        <mxCell id="picqBfe8_j36jY5c43g5-18" value="记录处理结果" style="rounded=0;whiteSpace=wrap;html=1;" parent="1" vertex="1">
          <mxGeometry x="352" y="495" width="120" height="60" as="geometry" />
        </mxCell>
        <mxCell id="picqBfe8_j36jY5c43g5-19" value="统计分析" style="rounded=0;whiteSpace=wrap;html=1;" parent="1" vertex="1">
          <mxGeometry x="482" y="495" width="120" height="60" as="geometry" />
        </mxCell>
        <mxCell id="picqBfe8_j36jY5c43g5-20" value="" style="endArrow=classic;html=1;rounded=0;exitX=0.52;exitY=1.017;exitDx=0;exitDy=0;exitPerimeter=0;entryX=0.5;entryY=0;entryDx=0;entryDy=0;" parent="1" source="picqBfe8_j36jY5c43g5-8" target="picqBfe8_j36jY5c43g5-18" edge="1">
          <mxGeometry width="50" height="50" relative="1" as="geometry">
            <mxPoint x="390" y="520" as="sourcePoint" />
            <mxPoint x="440" y="470" as="targetPoint" />
          </mxGeometry>
        </mxCell>
        <mxCell id="picqBfe8_j36jY5c43g5-21" value="" style="endArrow=classic;html=1;rounded=0;entryX=0.5;entryY=0;entryDx=0;entryDy=0;" parent="1" target="picqBfe8_j36jY5c43g5-19" edge="1">
          <mxGeometry width="50" height="50" relative="1" as="geometry">
            <mxPoint x="480" y="450" as="sourcePoint" />
            <mxPoint x="270" y="510" as="targetPoint" />
          </mxGeometry>
        </mxCell>
        <mxCell id="picqBfe8_j36jY5c43g5-22" value="" style="ellipse;whiteSpace=wrap;html=1;aspect=fixed;" parent="1" vertex="1">
          <mxGeometry x="202" y="490" width="70" height="70" as="geometry" />
        </mxCell>
        <mxCell id="picqBfe8_j36jY5c43g5-23" value="" style="ellipse;whiteSpace=wrap;html=1;aspect=fixed;" parent="1" vertex="1">
          <mxGeometry x="222" y="492" width="30" height="30" as="geometry" />
        </mxCell>
        <mxCell id="picqBfe8_j36jY5c43g5-24" value="" style="ellipse;whiteSpace=wrap;html=1;aspect=fixed;fontStyle=1" parent="1" vertex="1">
          <mxGeometry x="239" y="517" width="30" height="30" as="geometry" />
        </mxCell>
        <mxCell id="picqBfe8_j36jY5c43g5-25" value="" style="ellipse;whiteSpace=wrap;html=1;aspect=fixed;fontStyle=1" parent="1" vertex="1">
          <mxGeometry x="209" y="522" width="30" height="30" as="geometry" />
        </mxCell>
        <mxCell id="picqBfe8_j36jY5c43g5-30" value="kafka 集群" style="text;html=1;strokeColor=none;fillColor=none;align=center;verticalAlign=middle;whiteSpace=wrap;rounded=0;" parent="1" vertex="1">
          <mxGeometry x="117" y="90" width="60" height="30" as="geometry" />
        </mxCell>
        <mxCell id="picqBfe8_j36jY5c43g5-31" value="ffmpeg" style="text;html=1;strokeColor=none;fillColor=none;align=center;verticalAlign=middle;whiteSpace=wrap;rounded=0;" parent="1" vertex="1">
          <mxGeometry x="170" y="330" width="60" height="30" as="geometry" />
        </mxCell>
        <mxCell id="picqBfe8_j36jY5c43g5-32" value="K8s" style="text;html=1;strokeColor=none;fillColor=none;align=center;verticalAlign=middle;whiteSpace=wrap;rounded=0;" parent="1" vertex="1">
          <mxGeometry x="290" y="487" width="60" height="30" as="geometry" />
        </mxCell>
        <mxCell id="picqBfe8_j36jY5c43g5-33" value="Nginx" style="text;html=1;strokeColor=none;fillColor=none;align=center;verticalAlign=middle;whiteSpace=wrap;rounded=0;" parent="1" vertex="1">
          <mxGeometry x="290" y="529" width="60" height="30" as="geometry" />
        </mxCell>
        <mxCell id="picqBfe8_j36jY5c43g5-34" value="算子" style="text;html=1;strokeColor=none;fillColor=none;align=center;verticalAlign=middle;whiteSpace=wrap;rounded=0;" parent="1" vertex="1">
          <mxGeometry x="380" y="330" width="60" height="30" as="geometry" />
        </mxCell>
        <mxCell id="picqBfe8_j36jY5c43g5-35" value="" style="ellipse;whiteSpace=wrap;html=1;aspect=fixed;" parent="1" vertex="1">
          <mxGeometry x="375" y="127" width="70" height="70" as="geometry" />
        </mxCell>
        <mxCell id="picqBfe8_j36jY5c43g5-36" value="" style="ellipse;whiteSpace=wrap;html=1;aspect=fixed;" parent="1" vertex="1">
          <mxGeometry x="395" y="129" width="30" height="30" as="geometry" />
        </mxCell>
        <mxCell id="picqBfe8_j36jY5c43g5-37" value="" style="ellipse;whiteSpace=wrap;html=1;aspect=fixed;fontStyle=1" parent="1" vertex="1">
          <mxGeometry x="412" y="154" width="30" height="30" as="geometry" />
        </mxCell>
        <mxCell id="picqBfe8_j36jY5c43g5-38" value="" style="ellipse;whiteSpace=wrap;html=1;aspect=fixed;fontStyle=1" parent="1" vertex="1">
          <mxGeometry x="382" y="159" width="30" height="30" as="geometry" />
        </mxCell>
        <mxCell id="picqBfe8_j36jY5c43g5-41" value="Image AI" style="text;html=1;strokeColor=none;fillColor=none;align=center;verticalAlign=middle;whiteSpace=wrap;rounded=0;" parent="1" vertex="1">
          <mxGeometry x="384" y="97" width="60" height="30" as="geometry" />
        </mxCell>
        <mxCell id="picqBfe8_j36jY5c43g5-49" value="java 程序" style="text;html=1;strokeColor=none;fillColor=none;align=center;verticalAlign=middle;whiteSpace=wrap;rounded=0;" parent="1" vertex="1">
          <mxGeometry x="207" y="457" width="60" height="30" as="geometry" />
        </mxCell>
        <mxCell id="picqBfe8_j36jY5c43g5-52" value="K8s" style="text;html=1;strokeColor=none;fillColor=none;align=center;verticalAlign=middle;whiteSpace=wrap;rounded=0;" parent="1" vertex="1">
          <mxGeometry x="380" y="210" width="20" height="30" as="geometry" />
        </mxCell>
        <mxCell id="picqBfe8_j36jY5c43g5-53" value="nginx +&amp;nbsp; grpc" style="text;html=1;strokeColor=none;fillColor=none;align=center;verticalAlign=middle;whiteSpace=wrap;rounded=0;" parent="1" vertex="1">
          <mxGeometry x="400" y="215" width="130" height="20" as="geometry" />
        </mxCell>
        <mxCell id="picqBfe8_j36jY5c43g5-54" value="&lt;h1&gt;概念介绍&lt;/h1&gt;&lt;p&gt;* 算子：stream 的计算节点&lt;/p&gt;&lt;p&gt;&lt;span style=&quot;white-space: pre&quot;&gt;	&lt;/span&gt;* 算子两头通过 topic 进行连接，每个算子的入口 和出口可以对应多个 topic&lt;br&gt;&lt;/p&gt;&lt;p&gt;&lt;span style=&quot;white-space: pre&quot;&gt;	&lt;/span&gt;* 算子相当于stream 逻辑处理占位节点&lt;br&gt;&lt;/p&gt;&lt;p&gt;&lt;span style=&quot;white-space: pre&quot;&gt;	&lt;/span&gt;* 算子通过调用具体的程序完成计算，这里的程序既包括算法，也包括普通的业务处理逻辑&lt;br&gt;&lt;/p&gt;&lt;p&gt;&lt;span style=&quot;white-space: pre&quot;&gt;	&lt;/span&gt;&lt;span style=&quot;white-space: pre&quot;&gt;	&lt;/span&gt;* 无状态：算法或普通业务可以做负载均衡&lt;br&gt;&lt;/p&gt;&lt;p&gt;&lt;span style=&quot;white-space: pre&quot;&gt;	&lt;/span&gt;&lt;span style=&quot;white-space: pre&quot;&gt;	&lt;/span&gt;* 有状态：不做负载，直接算子调用应用程序&lt;br&gt;&lt;/p&gt;" style="text;html=1;strokeColor=none;fillColor=none;spacing=5;spacingTop=-20;whiteSpace=wrap;overflow=hidden;rounded=0;" parent="1" vertex="1">
          <mxGeometry x="90.75" y="600" width="766.5" height="210" as="geometry" />
        </mxCell>
      </root>
    </mxGraphModel>
  </diagram>
</mxfile>
